<?xml version="1.0" encoding="utf-8"?>
<!-- Generator: Adobe Illustrator 24.0.3, SVG Export Plug-In . SVG Version: 6.00 Build 0)  -->
<svg version="1.1" id="human_body" xmlns="http://www.w3.org/2000/svg" xmlns:xlink="http://www.w3.org/1999/xlink" x="0px" y="0px"
	 viewBox="0 0 800 1024" style="enable-background:new 0 0 800 1024;" xml:space="preserve">
<style type="text/css">
	.st0{font-family:'Impact';}
	.st1{font-size:82.706px;}
</style>
<text transform="matrix(1 0 0 1 605.7318 136.7967)" class="st0 st1">LEFT</text>
<text transform="matrix(1 0 0 1 38.5063 136.7968)" class="st0 st1">RIGHT</text>
<path id="Torso" d="M473.5,586.4c-25.5-9.2-38.7-6-66.8,15.4c-0.3-3.3-0.5-6-0.7-8.9c-3.8,0-7.2,0-11.2,0c0,3.4,0,6.6,0,11.4
	C375,585.8,354,576.5,329,586.2c5.1-11.6,10.8-23,15.1-34.9c11.5-32,4.5-60.8-17.5-85.7c-6-6.8-7.7-12.5-6.9-21.6
	c1.4-15.7,0.2-31.7-0.4-47.6c-0.5-13.1-2.1-26.1-2.3-39.2c-0.1-3.5,2.2-8,4.9-10.3c29.4-25.1,50.6-54.9,56-94.3
	c2.7-19.5-0.7-38.2-7.2-56.5c-1.4-3.9-3-7.7-5.1-13.1c23.2,14.4,45.7,15.1,67.6,3.9c-3,15.5-7.7,30.7-8.8,46.1
	c-2.8,39.8,14.5,72,41.2,99.9c3.8,4,7.5,8.3,12.1,11.1c6.8,4.1,6.7,9.6,6.5,16.3c-1,30.7-1.5,61.5-2.5,92.2c-0.1,3-2.6,6.5-4.8,8.9
	c-17.5,18.6-27,40.2-25.3,66.2c1.2,18.4,8.1,34.8,17.1,50.6C469.9,580.5,471.3,582.8,473.5,586.4z"/>
<path id="Head" d="M441.1,175.5c-23.1,18.6-53.6,19.2-75.4,1.1c-2.5-2-4.4-5.7-4.9-8.8c-1.5-9.1-4.8-12.1-13.9-11.4
	c-5.1,0.4-10.3,0.7-15.5,1c-5.6,0.4-8-2.5-9.2-7.8c-2.2-10.1-5-20-7.6-30c-0.1-0.6-0.3-1.5-0.7-1.6c-12.6-3.4-4.8-10.7-2.5-16
	c3.5-8.4,4.6-15.7,1.7-25.1c-6.3-20.3,7.5-44.4,30.2-54.6c28.3-12.6,75.3-9.1,94.5,31.8c8.4,17.9,5.1,34.4-6.2,48.8
	c-10.7,13.7-10,27.5-4.3,42C431.4,155.3,436.4,165.1,441.1,175.5z"/>
<path id="Right_shoulder" d="M267.8,321c1.1-29.5,0.5-57.9,3.7-85.9c2.4-20.6,18.4-38,42.6-41.5c14.7-2.1,28.9-7.7,44.1-12
	c32.3,51.9,14.3,120.1-42.4,162.4C306.3,324.8,291.8,314.8,267.8,321z"/>
<path id="Left_shoulder" d="M531.9,320.4c-21.5-5.6-35.8,5-45.6,23.8c-50-37.7-77.5-101.3-43.1-161.9c18,4.5,35.6,8.2,52.8,13.3
	c22.7,6.8,33.5,25.1,35.4,46.6C533.6,267.8,531.9,293.9,531.9,320.4z"/>
<path id="Left_thigh" d="M478.1,744.2c-18.5-13.1-35.9-10.4-53.1,5.8c-2.7-16.6-5.6-31.6-7.6-46.7c-3.7-29-6.8-58-10-87.1
	c-0.3-2.5-0.5-6.1,0.9-7.6c18.1-19.3,45-32,70.6-12.7c10.6,7.9,19.6,16.8,15.4,33.6c-5.8,23.2-9,47.1-12.5,70.9
	C479.7,714.4,479.3,728.8,478.1,744.2z"/>
<path id="Right_thigh" d="M377,749.6c-18.3-17.2-35.8-17.5-53.8-4.5c-1.6-16.6-2.5-32.7-4.8-48.4c-3.6-24-8.4-47.9-12.3-71.9
	c-2.1-12.7,9.9-28.1,25.7-34.2c19.8-7.7,47.8,0.1,59.4,18.1c3.2,5,2.1,13.5,1.3,20.2C387.7,668.4,382.4,707.8,377,749.6z"/>
<path id="Left_arm" d="M567.4,496.9c-8.8,3.4-18.2,7.1-27.1,10.5c-7-13.4-14.7-28.4-22.6-43.4c-14.2-26.9-21.7-55.4-22-85.9
	c-0.1-6.6-1-13.7-3.6-19.6c-5.4-12.4,2.2-19.6,9.2-26.9c7.7-8.1,17.8-8.9,28-6c1.9,0.5,4.1,3.8,4.2,6c1.8,25.5,8.9,49.3,19.3,72.8
	c5.5,12.4,6.3,27.1,8.3,40.8C563.8,462.7,565.5,480.2,567.4,496.9z"/>
<path id="Right_arm" d="M261.9,504c-9.1-3.8-18.1-7.5-27.4-11.4c2.9-24.1,5.7-49.3,9.2-74.5c0.9-6.5,3.6-12.9,6.6-18.8
	c10.3-19.8,14.8-41.1,16.7-63c0.7-8.5,3.9-11.7,12.2-12c13.5-0.4,27.6,8.6,31.8,21.5c0.5,1.5,0.1,3.4-0.2,5.1
	c-2.4,15.5-6,31-7.1,46.6c-1.8,26-12.1,48.8-23.3,71.4C274.4,481,267.7,492.9,261.9,504z"/>
<path id="Left_lower_leg" d="M430.6,786.6c21.6,13.2,28.4,13,51.3-2.3c6,17,6,34.1,1.7,50.9c-7,27-14.9,53.8-23.2,80.5
	c-1.2,4-6.6,9.1-10.3,9.3c-6.8,0.3-13.9-2.5-20.6-4.6c-0.9-0.3-0.9-4.4-1-6.7c-0.6-19.4-1.6-38.8-1.5-58.2c0-18.5,1.1-37,1.9-55.6
	C429.1,795.7,430,791.5,430.6,786.6z"/>
<path id="Right_lower_leg" d="M373.4,923.8c-18.2,5.1-32-1.8-36.8-18.9c-7.2-25.7-14.2-51.5-20.6-77.4c-3.5-14-1.6-30.1,3-43.9
	c8.1,4.1,15.9,10.5,24.5,11.7c8.6,1.2,17.8-2.8,26.2-4.4C383.3,833.6,364.8,878.7,373.4,923.8z"/>
<path id="Right_hand" d="M215.3,545.3c-4.2,5.5-6.8,10.1-10.5,13.5c-2.3,2.2-6.1,2.7-9.2,4c0.1-3.1-0.9-6.8,0.4-9.3
	c5.2-10,10.8-19.7,16.8-29.2c3.7-5.9,9-10.9,12.4-16.9c5.2-9.2,12.9-8.3,20.4-5.7c7.8,2.7,14.2,6.8,13.9,17.6
	c-0.7,24.9-0.2,49.8-0.2,74.7c-1.5,0.3-3.1,0.6-4.6,1c-2.8-7.2-5.5-14.5-8.3-21.7c-0.2,11.5,1.2,22.9-4.6,33.3
	c-1.2,0.1-2.4,0.1-3.6,0.2c-1.1-12.4-2.2-24.7-3.3-37.1c-4.5,12.9-2.6,26.9-9.6,38.6c-0.9,0-1.8-0.1-2.7-0.1c0-12,0-24.1,0-36.1
	c-0.6,0-1.1-0.1-1.7-0.1c-4.3,8.1-8.6,16.2-12.9,24.3c-1.4-0.5-2.7-1.1-4.1-1.6C203.1,577.9,214.1,563.5,215.3,545.3z"/>
<path id="Left_hip" d="M496.5,603.2c-39.8-34.6-60.6-98.3-12.7-141.2C503.1,507.9,508,554.7,496.5,603.2z"/>
<path id="Left_hand" d="M584.8,546.6c4.6,15.9,9.1,31.9,13.7,47.8c-1.1,0.4-2.2,0.9-3.2,1.3c-9.4-4.8-10.3-15.5-16-23.7
	c0,11.9,0,23.7,0,37.6c-8.2-5.9-7.9-12.9-8.6-19.5c-0.7-6.8-1.7-13.5-4.7-20.4c-1,12.2-2,24.4-3,36.6c-1.2,0-2.3,0.1-3.5,0.1
	c-6.7-9.3-4.6-20.6-6-31.6c-2.2,6.7-4.4,13.4-6.6,20.1c-0.9-0.1-1.8-0.2-2.7-0.3c-0.5-2.4-1.3-4.8-1.3-7.2
	c-0.5-21.9-0.8-43.9-1.2-65.8c-0.2-9.8,7.1-14.1,14.5-16.4c7.2-2.2,15.8-4.4,21.4,4.1c9.4,14.5,18.8,29.1,27.6,44
	c1.4,2.4,0,6.5-0.1,9.8c-2.8-1.3-6.3-2-8.3-4.1c-3.9-4-7-8.8-10.5-13.3C585.7,546.2,585.2,546.4,584.8,546.6z"/>
<path id="Right_hip" d="M304.5,603.2c-11.9-48.4-6.4-94.7,11.7-140C360.2,497.7,348.8,565,304.5,603.2z"/>
<path id="Right_foot" d="M343.1,926.6c10.3,1.7,20.9,3.4,33.4,5.4c1.1,6.7,2.2,16.2,4.3,25.5c3.2,14.2,7.3,28.1,10.8,42.2
	c2.9,11.3-0.2,14.2-11.6,12.5c-8.8-1.3-17.8-1.2-26.7-2.3c-5.3-0.7-10.6-2-15.4-4.1c-1.9-0.9-3.7-5-3.4-7.3c0.8-6,1.9-12.2,4.5-17.6
	C347.8,962.5,346.6,943.8,343.1,926.6z"/>
<path id="Left_foot" d="M425.6,927.6c10.9,1.3,20.5,2.5,30.9,3.7c-0.3,2.9-0.8,7.4-1.4,11.8c-1.7,14.7,2.9,28.1,7.8,41.7
	c7.9,21.9,4.7,20.9-15.9,25c-9.6,1.9-19.5,2.5-29.3,3.3c-5.9,0.5-10.1-1.9-9.7-8.8c0.1-2.1,0.6-4.2,1.1-6.3
	c5.2-22.7,10.4-45.4,15.7-68.2C425.1,928.8,425.6,927.7,425.6,927.6z"/>
<path id="Right_knee" d="M348.1,791.6c-9.8-0.1-26.6-11.6-26-18.2c0.8-7.8-0.2-17.5,4.1-22.6c4.8-5.6,14.4-8.6,22.4-9.7
	c10.8-1.5,26,9.3,25.7,16.1C373.6,778.2,363.2,791.7,348.1,791.6z"/>
<path id="Left_knee" d="M476.7,760c0.1,2.7,0.4,5.5,0.4,8.2c0,4.4,1.5,11.5-0.5,12.8c-7.2,4.6-15.6,10-23.5,9.9
	c-16.2-0.1-30.9-18.8-25.5-33.7c2.6-7.2,14.1-13,22.7-15.6c6.2-1.8,14.8,1.6,21.2,4.8c3.7,1.8,5.3,7.9,7.9,12
	C478.4,759.1,477.5,759.5,476.7,760z"/>
</svg>
